<?xml version="1.0" encoding="UTF-8"?>
<svg id="Layer_2" data-name="Layer 2" xmlns="http://www.w3.org/2000/svg" xmlns:xlink="http://www.w3.org/1999/xlink" viewBox="0 0 7720.72 1775.41">
  <defs>
    <style>
      .cls-1 {
        fill: url(#linear-gradient);
      }

      .cls-2 {
        fill: #d70466;
      }
    </style>
    <linearGradient id="linear-gradient" x1="0" y1="887.7" x2="1775.41" y2="887.7" gradientUnits="userSpaceOnUse">
      <stop offset="0" stop-color="#e71e4d"/>
      <stop offset=".5" stop-color="#e21a5f"/>
      <stop offset="1" stop-color="#d70466"/>
    </linearGradient>
  </defs>
  <g id="Layer_1-2" data-name="Layer 1">
    <g>
      <g>
        <path class="cls-2" d="m2166.94,895.25c0-246.6,195.13-432.15,432.15-432.15,120.91,0,221.46,47.88,295.68,124.5,8.38,8.38,5.99,16.76,0,23.94l-95.77,101.75c-7.18,8.38-16.76,8.38-25.14,2.39-46.69-40.7-104.15-67.04-173.58-67.04-137.67,0-241.81,104.15-241.81,246.6s104.15,245.4,241.81,245.4c69.43,0,126.89-26.34,173.58-67.04,8.38-5.99,17.96-5.99,25.14,2.39l95.77,101.75c5.99,7.18,8.38,15.56,0,23.94-74.22,76.61-174.78,124.5-295.68,124.5-237.03,0-432.15-184.35-432.15-430.96Z"/>
        <path class="cls-2" d="m2949.83,1017.36c0-173.58,130.48-307.65,307.65-307.65s308.85,134.08,308.85,307.65-131.68,307.65-308.85,307.65-307.65-134.08-307.65-307.65Zm307.65,140.06c74.22,0,131.68-53.87,131.68-140.06s-57.46-140.06-131.68-140.06-131.68,53.87-131.68,140.06,57.46,140.06,131.68,140.06Z"/>
        <path class="cls-2" d="m3639.35,1017.36c0-173.58,130.48-307.65,307.65-307.65s308.85,134.08,308.85,307.65-131.68,307.65-308.85,307.65-307.65-134.08-307.65-307.65Zm307.65,140.06c74.22,0,131.68-53.87,131.68-140.06s-57.46-140.06-131.68-140.06-131.68,53.87-131.68,140.06,57.46,140.06,131.68,140.06Z"/>
        <path class="cls-2" d="m4358.79,1292.69V472.68c0-10.77,7.18-17.96,17.96-17.96h147.24c10.77,0,19.15,7.18,19.15,17.96v471.66l173.58-210.69c5.99-7.18,13.17-9.58,21.55-9.58h165.2c16.76,0,20.35,9.58,10.77,22.75l-195.13,223.86,226.25,317.23c8.38,13.17,3.59,22.75-10.77,22.75h-158.02c-9.58,0-15.56-2.39-21.55-10.77l-146.05-202.31-65.84,76.61v118.51c0,10.77-8.38,17.96-19.15,17.96h-147.24c-10.77,0-17.96-7.18-17.96-17.96Z"/>
        <path class="cls-2" d="m5051.89,1292.69V490.64c0-10.77,7.18-17.96,17.96-17.96h290.9c149.64,0,232.24,96.96,232.24,213.08,0,89.78-53.87,148.44-107.74,174.78,81.4,21.55,162.81,89.78,162.81,211.89,0,141.26-96.96,238.22-299.27,238.22h-278.92c-10.77,0-17.96-7.18-17.96-17.96Zm269.35-492.01c57.46,0,93.37-22.75,93.37-83.8,0-57.46-35.91-77.81-93.37-77.81h-82.6v161.61h82.6Zm15.56,343.57c70.63,0,118.51-29.93,118.51-99.36s-47.88-96.96-118.51-96.96h-98.16v196.32h98.16Z"/>
        <path class="cls-2" d="m5721.06,1017.36c0-173.58,130.48-307.65,307.65-307.65s308.85,134.08,308.85,307.65-131.68,307.65-308.85,307.65-307.65-134.08-307.65-307.65Zm307.65,140.06c74.22,0,131.68-53.87,131.68-140.06s-57.46-140.06-131.68-140.06-131.68,53.87-131.68,140.06,57.46,140.06,131.68,140.06Z"/>
        <path class="cls-2" d="m6410.58,1017.36c0-173.58,130.48-307.65,307.65-307.65s308.85,134.08,308.85,307.65-131.68,307.65-308.85,307.65-307.65-134.08-307.65-307.65Zm307.65,140.06c74.22,0,131.68-53.87,131.68-140.06s-57.46-140.06-131.68-140.06-131.68,53.87-131.68,140.06,57.46,140.06,131.68,140.06Z"/>
        <path class="cls-2" d="m7130.02,1292.69V472.68c0-10.77,7.18-17.96,17.96-17.96h147.24c10.77,0,19.15,7.18,19.15,17.96v471.66l173.58-210.69c5.99-7.18,13.17-9.58,21.55-9.58h165.2c16.76,0,20.35,9.58,10.77,22.75l-195.13,223.86,226.25,317.23c8.38,13.17,3.59,22.75-10.77,22.75h-158.02c-9.58,0-15.56-2.39-21.55-10.77l-146.05-202.31-65.84,76.61v118.51c0,10.77-8.38,17.96-19.15,17.96h-147.24c-10.77,0-17.96-7.18-17.96-17.96Z"/>
      </g>
      <path class="cls-1" d="m1617.8,0H157.61C70.56,0,0,70.56,0,157.61v1460.19c0,87.04,70.56,157.61,157.61,157.61h1460.19c87.04,0,157.61-70.56,157.61-157.61V157.61c0-87.04-70.56-157.61-157.61-157.61ZM268.35,1696.11h-88.53c-55.51,0-100.52-45-100.52-100.52V179.82c0-55.51,45-100.52,100.52-100.52h88.53v1616.8Zm1109.3-284.4h-706.3v-101.06h706.3v101.06Zm0-496.89v353.5h-706.3v-283.29c-136.31-14.55-242.48-129.91-242.48-270.07,0-150.02,121.61-271.63,271.63-271.63,18.82,0,37.2,1.92,54.94,5.56,44.09-90.43,136.91-152.74,244.29-152.74,85.58,0,161.91,39.59,211.7,101.45,27.64-9.47,57.28-14.63,88.13-14.63,150.02,0,271.63,121.61,271.63,271.63,0,122.88-81.59,226.68-193.55,260.22Z"/>
    </g>
  </g>
</svg>